<svg width="12.000000" height="12.000000" viewBox="0 0 12 12" fill="none" xmlns="http://www.w3.org/2000/svg" xmlns:xlink="http://www.w3.org/1999/xlink">
	<desc>
			Created with Pixso.
	</desc>
	<defs>
		<clipPath id="clip2_480">
			<rect id="Icon" width="12.000000" height="12.000000" fill="white" fill-opacity="0"/>
		</clipPath>
	</defs>
	<rect id="Icon" width="12.000000" height="12.000000" fill="#FFFFFF" fill-opacity="0"/>
	<g clip-path="url(#clip2_480)">
		<path id="Vector" d="M8.65 1.52C10.07 1.52 11.25 2.82 11.25 4.4C11.25 6.1 9.77 7.15 8.37 8.4C6.97 9.65 6.25 10.32 6 10.47C5.72 10.3 4.82 9.47 3.62 8.4C2.19 7.15 0.75 6.1 0.75 4.4C0.75 2.82 1.92 1.52 3.34 1.52C4.4 1.52 4.97 2.02 5.37 2.6C5.84 3.25 5.92 3.57 6 3.57C6.07 3.57 6.15 3.25 6.62 2.6C7.02 2.02 7.59 1.52 8.65 1.52ZM8.65 0.77C7.52 0.77 6.67 1.22 6 2.17C5.32 1.25 4.47 0.8 3.34 0.8C1.5 0.77 0 2.4 0 4.4C0 6.22 1.34 7.4 2.65 8.52C2.8 8.65 2.97 8.8 3.12 8.95L3.69 9.45C4.8 10.42 5.34 10.92 5.59 11.07C5.72 11.15 5.87 11.2 6 11.2C6.15 11.2 6.27 11.15 6.4 11.07C6.65 10.92 7.09 10.52 8.34 9.37L8.84 8.92C9.02 8.77 9.17 8.62 9.34 8.5C10.67 7.4 12 6.25 12 4.4C12 2.4 10.5 0.77 8.65 0.77Z" fill="#262626" fill-opacity="1.000000" fill-rule="nonzero"/>
	</g>
</svg>
