<svg width="24.000000" height="24.000000" viewBox="0 0 24 24" fill="none" xmlns="http://www.w3.org/2000/svg" xmlns:xlink="http://www.w3.org/1999/xlink">
	<desc>
			Created with Pixso.
	</desc>
	<defs>
		<clipPath id="clip2_482">
			<rect id="Icon" width="24.000000" height="24.000000" fill="white" fill-opacity="0"/>
		</clipPath>
	</defs>
	<rect id="Icon" width="24.000000" height="24.000000" fill="#FFFFFF" fill-opacity="0"/>
	<g clip-path="url(#clip2_482)">
		<path id="Vector" d="M13.5 12C13.5 12.82 12.82 13.5 12 13.5C11.17 13.5 10.5 12.82 10.5 12C10.5 11.17 11.17 10.5 12 10.5C12.82 10.5 13.5 11.17 13.5 12Z" fill="#262626" fill-opacity="1.000000" fill-rule="evenodd"/>
		<path id="Vector" d="M8 12C8 12.82 7.32 13.5 6.5 13.5C5.67 13.5 5 12.82 5 12C5 11.17 5.67 10.5 6.5 10.5C7.32 10.5 8 11.17 8 12Z" fill="#262626" fill-opacity="1.000000" fill-rule="evenodd"/>
		<path id="Vector" d="M19 12C19 12.82 18.32 13.5 17.5 13.5C16.67 13.5 16 12.82 16 12C16 11.17 16.67 10.5 17.5 10.5C18.32 10.5 19 11.17 19 12Z" fill="#262626" fill-opacity="1.000000" fill-rule="evenodd"/>
	</g>
</svg>
