<svg width="24.000000" height="21.000000" viewBox="0 0 24 21" fill="none" xmlns="http://www.w3.org/2000/svg" xmlns:xlink="http://www.w3.org/1999/xlink">
	<desc>
			Created with Pixso.
	</desc>
	<defs/>
	<path id="Vector" d="M17.29 1.04C20.14 1.04 22.5 3.64 22.5 6.79C22.5 10.2 19.54 12.3 16.75 14.8C13.95 17.29 12.5 18.65 12 18.95C11.45 18.6 9.64 16.95 7.25 14.8C4.39 12.3 1.5 10.2 1.5 6.79C1.5 3.64 3.85 1.04 6.69 1.04C8.8 1.04 9.94 2.04 10.75 3.19C11.7 4.49 11.85 5.14 12 5.14C12.14 5.14 12.3 4.49 13.25 3.19C14.05 2.04 15.2 1.04 17.29 1.04ZM17.29 -0.46C15.05 -0.46 13.35 0.44 12 2.34C10.64 0.49 8.94 -0.41 6.69 -0.41C3 -0.46 0 2.79 0 6.79C0 10.45 2.69 12.8 5.3 15.05C5.6 15.3 5.94 15.6 6.25 15.9L7.39 16.9C9.6 18.85 10.7 19.85 11.2 20.15C11.45 20.29 11.75 20.4 12 20.4C12.3 20.4 12.55 20.29 12.8 20.15C13.3 19.85 14.2 19.04 16.7 16.75L17.7 15.85C18.04 15.55 18.35 15.25 18.7 15C21.35 12.8 24 10.5 24 6.79C24 2.79 21 -0.46 17.29 -0.46Z" fill="#262626" fill-opacity="1.000000" fill-rule="nonzero"/>
</svg>
