<svg width="23.000000" height="24.000000" viewBox="0 0 23 24" fill="none" xmlns="http://www.w3.org/2000/svg" xmlns:xlink="http://www.w3.org/1999/xlink">
	<desc>
			Created with Pixso.
	</desc>
	<defs/>
	<path id="Vector" d="M21.75 24L14.05 24C13.65 24 13.3 23.65 13.3 23.25L13.3 17.1C13.3 15.8 12.25 14.8 11 14.8C9.75 14.8 8.69 15.85 8.69 17.1L8.69 23.25C8.69 23.65 8.34 24 7.94 24L0.25 24C-0.16 24 -0.5 23.65 -0.5 23.25L-0.5 11.5C-0.5 11.3 -0.41 11.1 -0.31 10.95L10.45 0.2C10.75 -0.11 11.25 -0.11 11.5 0.2L22.25 10.95C22.4 11.1 22.45 11.3 22.45 11.5L22.45 23.25C22.5 23.65 22.15 24 21.75 24Z" fill="#262626" fill-opacity="1.000000" fill-rule="nonzero"/>
</svg>
