<svg width="21.000000" height="25.000000" viewBox="0 0 21 25" fill="none" xmlns="http://www.w3.org/2000/svg" xmlns:xlink="http://www.w3.org/1999/xlink">
	<desc>
			Created with Pixso.
	</desc>
	<defs/>
	<path id="Vector" d="M19.75 24C19.54 24 19.35 23.9 19.2 23.8L10 14.5L0.8 23.8C0.59 24 0.25 24.1 0 23.95C-0.31 23.85 -0.5 23.55 -0.5 23.25L-0.5 0.75C-0.5 0.35 -0.16 0 0.25 0L19.75 0C20.15 0 20.5 0.35 20.5 0.75L20.5 23.25C20.5 23.55 20.29 23.85 20.04 23.95C19.95 24 19.85 24 19.75 24ZM10 13C10.4 13 10.8 13.15 11.1 13.45L19 21.45L19 1.5L1 1.5L1 21.45L8.9 13.45C9.19 13.15 9.59 13 10 13Z" fill="#262626" fill-opacity="1.000000" fill-rule="nonzero"/>
</svg>
