<svg width="25.000000" height="21.000000" viewBox="0 0 25 21" fill="none" xmlns="http://www.w3.org/2000/svg" xmlns:xlink="http://www.w3.org/1999/xlink">
	<desc>
			Created with Pixso.
	</desc>
	<defs/>
	<path id="Vector" d="M23.89 -0.11C23.75 -0.36 23.5 -0.5 23.25 -0.5L0.75 -0.5C0.44 -0.45 0.14 -0.25 0.05 0C-0.06 0.25 0 0.6 0.19 0.85L8.14 8.64L10.89 19.95C10.95 20.25 11.2 20.45 11.5 20.5L11.6 20.5C11.85 20.5 12.1 20.35 12.25 20.15L23.85 0.64C24.05 0.44 24.05 0.14 23.89 -0.11ZM2.6 1.04L20.35 1.04L9 7.35L2.6 1.04ZM11.95 17.85L9.75 8.64L21.2 2.3L11.95 17.85Z" fill="#262626" fill-opacity="1.000000" fill-rule="nonzero"/>
</svg>
