<svg width="48.000000" height="48.000000" viewBox="0 0 48 48" fill="none" xmlns="http://www.w3.org/2000/svg" xmlns:xlink="http://www.w3.org/1999/xlink">
	<desc>
			Created with Pixso.
	</desc>
	<defs>
		<clipPath id="clip2_138">
			<rect id="Icon" width="48.000000" height="48.000000" fill="white" fill-opacity="0"/>
		</clipPath>
	</defs>
	<g clip-path="url(#clip2_138)">
		<path id="Vector" d="M24 14.64C30.38 14.64 36.52 17.13 41.15 21.58C41.5 21.93 42.05 21.92 42.4 21.57L45.73 18.17C45.9 17.99 46 17.75 46 17.5C45.99 17.25 45.89 17.01 45.72 16.84C33.57 5.05 14.42 5.05 2.27 16.84C2.1 17.01 2 17.25 2 17.5C1.99 17.75 2.09 17.99 2.26 18.17L5.6 21.57C5.94 21.92 6.5 21.93 6.84 21.58C11.47 17.13 17.61 14.64 24 14.64ZM24 25.72C27.5 25.72 30.89 27.04 33.49 29.42C33.84 29.76 34.39 29.75 34.73 29.41L38.06 26C38.24 25.82 38.33 25.58 38.33 25.33C38.33 25.08 38.23 24.84 38.05 24.66C30.13 17.2 17.87 17.2 9.95 24.66C9.77 24.84 9.67 25.08 9.67 25.33C9.67 25.58 9.76 25.82 9.94 26L13.26 29.41C13.61 29.75 14.16 29.76 14.51 29.42C17.11 27.04 20.49 25.72 24 25.72ZM30.39 33.84C30.57 33.67 30.67 33.42 30.66 33.17C30.65 32.92 30.55 32.68 30.36 32.51C26.69 29.36 21.31 29.36 17.63 32.51C17.45 32.68 17.34 32.92 17.33 33.17C17.33 33.42 17.42 33.67 17.6 33.84L23.36 39.72C23.53 39.9 23.76 40 24 40C24.24 40 24.47 39.9 24.63 39.72L30.39 33.84Z" fill="#2C2C2C" fill-opacity="1.000000" fill-rule="nonzero"/>
	</g>
</svg>
