<svg width="72.000000" height="48.000000" viewBox="0 0 72 48" fill="none" xmlns="http://www.w3.org/2000/svg" xmlns:xlink="http://www.w3.org/1999/xlink">
	<desc>
			Created with Pixso.
	</desc>
	<defs>
		<clipPath id="clip2_140">
			<rect id="Icon" width="72.000000" height="48.000000" fill="white" fill-opacity="0"/>
		</clipPath>
	</defs>
	<g clip-path="url(#clip2_140)">
		<path id="Vector" d="M3 17C3 12.02 7.02 8 12 8L55 8C59.97 8 64 12.02 64 17L64 31C64 35.97 59.97 40 55 40L12 40C7.02 40 3 35.97 3 31L3 17ZM12 10C8.13 10 5 13.13 5 17L5 31C5 34.86 8.13 38 12 38L55 38C58.86 38 62 34.86 62 31L62 17C62 13.13 58.86 10 55 10L12 10Z" fill="#9C9C9C" fill-opacity="1.000000" fill-rule="evenodd"/>
		<path id="Vector" d="M8 17C8 14.79 9.79 13 12 13L55 13C57.2 13 59 14.79 59 17L59 31C59 33.2 57.2 35 55 35L12 35C9.79 35 8 33.2 8 31L8 17Z" fill="#2C2C2C" fill-opacity="1.000000" fill-rule="nonzero"/>
		<path id="Vector" d="M66 29.65C66.09 29.62 66.19 29.58 66.29 29.54C67.02 29.24 67.68 28.79 68.24 28.24C68.79 27.68 69.24 27.02 69.54 26.29C69.84 25.56 70 24.78 70 24C70 23.21 69.84 22.43 69.54 21.7C69.24 20.97 68.79 20.31 68.24 19.75C67.68 19.2 67.02 18.75 66.29 18.45C66.19 18.41 66.09 18.37 66 18.34L66 29.65Z" fill="#9C9C9C" fill-opacity="1.000000" fill-rule="evenodd"/>
	</g>
</svg>
