<svg width="24.000000" height="24.000000" viewBox="0 0 24 24" fill="none" xmlns="http://www.w3.org/2000/svg" xmlns:xlink="http://www.w3.org/1999/xlink">
	<desc>
			Created with Pixso.
	</desc>
	<defs>
		<clipPath id="clip2_592">
			<rect id="Icon" width="24.000000" height="24.000000" fill="white" fill-opacity="0"/>
		</clipPath>
	</defs>
	<rect id="Icon" width="24.000000" height="24.000000" fill="#FFFFFF" fill-opacity="0"/>
	<g clip-path="url(#clip2_592)">
		<path id="Vector" d="M12 0C5.4 0 0 5.39 0 12C0 18.6 5.4 24 12 24C18.6 24 24 18.6 24 12C24 5.39 18.6 0 12 0ZM12 22.5C6.19 22.5 1.5 17.79 1.5 12C1.5 6.2 6.19 1.5 12 1.5C17.79 1.5 22.5 6.2 22.5 12C22.5 17.79 17.79 22.5 12 22.5ZM17.1 5.89L9.69 9.39C9.55 9.45 9.4 9.6 9.34 9.75L5.84 17.15C5.69 17.45 5.75 17.79 6 18C6.15 18.15 6.34 18.2 6.55 18.2C6.65 18.2 6.75 18.2 6.84 18.15L14.25 14.65C14.4 14.6 14.55 14.45 14.6 14.3L18.1 6.89C18.25 6.6 18.2 6.25 17.95 6.04C17.75 5.79 17.4 5.75 17.1 5.89ZM13.4 13.4L10.65 10.65L15.9 8.14L13.4 13.4Z" fill="#262626" fill-opacity="1.000000" fill-rule="evenodd"/>
	</g>
</svg>
