<svg width="16.000000" height="16.000000" viewBox="0 0 16 16" fill="none" xmlns="http://www.w3.org/2000/svg" xmlns:xlink="http://www.w3.org/1999/xlink">
	<desc>
			Created with Pixso.
	</desc>
	<defs>
		<clipPath id="clip2_586">
			<rect id="Icon" width="16.000000" height="16.000000" fill="white" fill-opacity="0"/>
		</clipPath>
	</defs>
	<g clip-path="url(#clip2_586)">
		<path id="Vector" d="M9.31 3.88C7.93 2.5 5.69 2.5 4.31 3.88C2.93 5.26 2.93 7.5 4.31 8.88C5.69 10.26 7.93 10.26 9.31 8.88C10.7 7.5 10.7 5.26 9.31 3.88ZM3.6 3.16C5.37 1.39 8.25 1.39 10.03 3.16C11.68 4.82 11.8 7.43 10.37 9.22L12.74 11.59C12.94 11.79 12.94 12.11 12.74 12.31C12.54 12.5 12.22 12.5 12.02 12.31L9.65 9.93C7.87 11.36 5.25 11.25 3.6 9.6C1.82 7.82 1.82 4.94 3.6 3.16Z" fill="#9C9C9C" fill-opacity="1.000000" fill-rule="evenodd"/>
		<path id="Vector" d="M9.31 3.88C10.7 5.26 10.7 7.5 9.31 8.88C7.93 10.26 5.69 10.26 4.31 8.88C2.93 7.5 2.93 5.26 4.31 3.88C5.69 2.5 7.93 2.5 9.31 3.88ZM3.6 3.16C1.82 4.94 1.82 7.82 3.6 9.6C5.25 11.25 7.87 11.36 9.65 9.93L12.02 12.31C12.22 12.5 12.54 12.5 12.74 12.31C12.94 12.11 12.94 11.79 12.74 11.59L10.37 9.22C11.8 7.43 11.68 4.82 10.03 3.16C8.25 1.39 5.37 1.39 3.6 3.16Z" stroke="#9C9C9C" stroke-opacity="1.000000" stroke-width="0.400000" stroke-linejoin="round"/>
	</g>
</svg>
