<svg width="84.000000" height="25.000000" viewBox="0 0 84 25" fill="none" xmlns="http://www.w3.org/2000/svg" xmlns:xlink="http://www.w3.org/1999/xlink">
	<desc>
			Created with Pixso.
	</desc>
	<defs/>
	<path id="Time" d="M18.15 24L34.71 24L34.71 20.13L24.32 20.13L29.82 14.33Q32.07 11.86 33 10Q33.93 8.14 33.93 6.35Q33.93 3.9 32.78 2.28Q32.39 1.73 31.87 1.28Q29.8 -0.51 26.06 -0.51Q23.78 -0.51 21.95 0.4Q21.82 0.46 21.7 0.53Q20.5 1.17 19.64 2.13Q19.12 2.7 18.72 3.39Q18.37 3.99 18.14 4.64Q17.66 5.95 17.66 7.43L22.48 7.43Q22.48 5.72 23.3 4.63Q23.36 4.55 23.42 4.48Q23.75 4.09 24.16 3.83Q24.93 3.36 25.98 3.36Q27.17 3.36 27.93 3.93Q28.13 4.09 28.31 4.28Q28.32 4.3 28.34 4.32Q29.12 5.24 29.12 6.81Q29.12 7.99 28.35 9.3Q27.58 10.61 25.96 12.37L18.15 20.71L18.15 24ZM61.44 21.67Q63.52 19.01 63.52 14L63.52 9.55Q63.47 4.69 61.38 2.09Q60.79 1.36 60.06 0.84Q58.18 -0.51 55.33 -0.51Q52.53 -0.51 50.66 0.81Q49.89 1.35 49.28 2.11Q47.18 4.74 47.18 9.8L47.18 14.25Q47.23 19.11 49.32 21.72Q49.92 22.46 50.66 22.99Q52.53 24.33 55.37 24.33Q58.23 24.33 60.11 22.97Q60.85 22.43 61.44 21.67ZM80.95 21.67Q83.02 19.01 83.02 14L83.02 9.55Q82.97 4.69 80.88 2.09Q80.3 1.36 79.56 0.84Q77.68 -0.51 74.84 -0.51Q72.04 -0.51 70.16 0.81Q69.4 1.35 68.79 2.11Q66.69 4.74 66.69 9.8L66.69 14.25Q66.74 19.11 68.83 21.72Q69.42 22.46 70.16 22.99Q72.04 24.33 74.87 24.33Q77.74 24.33 79.61 22.97Q80.36 22.43 80.95 21.67ZM5.5 24L10.29 24L10.29 -0.21L9.78 -0.21L-0.23 3.38L-0.23 7.28L5.5 5.5L5.5 24ZM57.9 4.75Q58.72 6.12 58.72 9.12L58.72 14.86Q58.69 17.7 57.91 19.08Q57.6 19.63 57.13 19.96Q56.43 20.46 55.37 20.46Q54.35 20.46 53.65 19.99Q53.13 19.63 52.78 19.02Q51.98 17.59 51.98 14.63L51.98 8.75Q52.03 5.98 52.83 4.68Q53.15 4.16 53.61 3.85Q54.31 3.38 55.33 3.38Q56.36 3.38 57.07 3.85Q57.56 4.18 57.9 4.75ZM77.4 4.75Q78.23 6.12 78.23 9.12L78.23 14.86Q78.19 17.7 77.41 19.08Q77.1 19.63 76.64 19.96Q75.93 20.46 74.87 20.46Q73.85 20.46 73.15 19.99Q72.63 19.63 72.29 19.02Q71.49 17.59 71.49 14.63L71.49 8.75Q71.54 5.98 72.34 4.68Q72.66 4.16 73.12 3.85Q73.82 3.38 74.84 3.38Q75.87 3.38 76.57 3.85Q77.07 4.18 77.4 4.75ZM38.39 6.77Q38.08 7.32 38.08 8.04Q38.08 8.75 38.38 9.29Q38.56 9.61 38.85 9.88Q39.05 10.07 39.29 10.2Q39.93 10.58 40.79 10.58Q41.69 10.58 42.35 10.18Q42.56 10.05 42.75 9.88Q43.03 9.61 43.21 9.29Q43.51 8.75 43.51 8.04Q43.51 7.32 43.2 6.77Q43.02 6.44 42.74 6.18Q42.52 5.97 42.26 5.83Q41.63 5.47 40.79 5.47Q39.99 5.47 39.38 5.8Q39.1 5.96 38.86 6.18Q38.57 6.44 38.39 6.77ZM38.39 20.36Q38.08 20.91 38.08 21.64Q38.08 22.35 38.38 22.89Q38.56 23.21 38.85 23.47Q39.05 23.66 39.29 23.8Q39.93 24.18 40.79 24.18Q41.69 24.18 42.35 23.78Q42.56 23.65 42.75 23.47Q43.03 23.21 43.21 22.89Q43.51 22.35 43.51 21.64Q43.51 20.91 43.2 20.36Q43.02 20.04 42.74 19.78Q42.52 19.57 42.26 19.42Q41.63 19.06 40.79 19.06Q39.99 19.06 39.38 19.4Q39.1 19.55 38.86 19.78Q38.57 20.04 38.39 20.36Z" fill="#2C2C2C" fill-opacity="1.000000" fill-rule="evenodd"/>
</svg>
