<svg width="11.000000" height="11.000000" viewBox="0 0 11 11" fill="none" xmlns="http://www.w3.org/2000/svg" xmlns:xlink="http://www.w3.org/1999/xlink">
	<desc>
			Created with Pixso.
	</desc>
	<defs/>
	<path id="Vector" d="M6.31 1.88C4.93 0.5 2.69 0.5 1.31 1.88C-0.07 3.26 -0.07 5.5 1.31 6.88C2.69 8.26 4.93 8.26 6.31 6.88C7.7 5.5 7.7 3.26 6.31 1.88ZM0.6 1.16C2.37 -0.61 5.25 -0.61 7.03 1.16C8.68 2.82 8.8 5.43 7.37 7.22L9.74 9.59C9.94 9.79 9.94 10.11 9.74 10.31C9.54 10.5 9.22 10.5 9.02 10.31L6.65 7.93C4.87 9.36 2.25 9.25 0.6 7.6C-1.18 5.82 -1.18 2.94 0.6 1.16Z" fill="#9C9C9C" fill-opacity="1.000000" fill-rule="evenodd"/>
	<path id="Vector" d="M6.31 1.88C7.7 3.26 7.7 5.5 6.31 6.88C4.93 8.26 2.69 8.26 1.31 6.88C-0.07 5.5 -0.07 3.26 1.31 1.88C2.69 0.5 4.93 0.5 6.31 1.88ZM0.6 1.16C-1.18 2.94 -1.18 5.82 0.6 7.6C2.25 9.25 4.87 9.36 6.65 7.93L9.02 10.31C9.22 10.5 9.54 10.5 9.74 10.31C9.94 10.11 9.94 9.79 9.74 9.59L7.37 7.22C8.8 5.43 8.68 2.82 7.03 1.16C5.25 -0.61 2.37 -0.61 0.6 1.16Z" stroke="#9C9C9C" stroke-opacity="1.000000" stroke-width="0.400000" stroke-linejoin="round"/>
</svg>
